<svg xmlns="http://www.w3.org/2000/svg" viewBox="0 0 400 300" fill="none">
<rect width="400" height="300" fill="#0f1923"/>
<rect x="60" y="40" width="120" height="90" rx="6" fill="#1a2533" stroke="#2d3f54" stroke-width="1.5"/>
<circle cx="120" cy="75" r="20" fill="#1e3a5f"/>
<circle cx="120" cy="75" r="15" fill="#2a4a70"/>
<path d="M112 80 Q120 88 128 80" stroke="#4285f4" stroke-width="2" fill="none"/>
<circle cx="115" cy="72" r="2" fill="#4285f4"/>
<circle cx="125" cy="72" r="2" fill="#4285f4"/>
<text x="120" y="115" text-anchor="middle" font-family="Arial" font-size="10" fill="#8ba4c0">Agent</text>
<text x="120" y="125" text-anchor="middle" font-family="Arial" font-size="8" fill="#5a7a9a">TR</text>
<path d="M180 85 L220 85" stroke="#28c840" stroke-width="2"/>
<polygon points="220,80 232,85 220,90" fill="#28c840"/>
<rect x="220" y="40" width="120" height="90" rx="6" fill="#1a2533" stroke="#2d3f54" stroke-width="1.5"/>
<circle cx="280" cy="75" r="20" fill="#1e3a5f"/>
<circle cx="280" cy="75" r="15" fill="#2a4a70"/>
<path d="M272 80 Q280 88 288 80" stroke="#28c840" stroke-width="2" fill="none"/>
<circle cx="275" cy="72" r="2" fill="#28c840"/>
<circle cx="285" cy="72" r="2" fill="#28c840"/>
<text x="280" y="115" text-anchor="middle" font-family="Arial" font-size="10" fill="#8ba4c0">Customer</text>
<text x="280" y="125" text-anchor="middle" font-family="Arial" font-size="8" fill="#5a7a9a">IN</text>
<rect x="100" y="170" width="200" height="60" rx="8" fill="#1e3a5f"/>
<text x="200" y="193" text-anchor="middle" font-family="Arial" font-size="10" fill="#4285f4">AI Accent Converter</text>
<text x="200" y="210" text-anchor="middle" font-family="Arial" font-size="9" fill="#5a7a9a">Real-time voice transformation</text>
<text x="200" y="225" text-anchor="middle" font-family="Arial" font-size="8" fill="#3d5a80">200-500ms latency</text>
<rect x="140" y="250" width="120" height="22" rx="4" fill="#28c840"/>
<text x="200" y="265" text-anchor="middle" font-family="Arial" font-size="9" fill="white">Telus / AT&T / Deutsche</text>
<text x="60" y="295" font-family="Arial" font-size="8" fill="#3d5a80">$50-80$/hr API → $0.05-0.08$/call</text>
</svg>