<svg xmlns="http://www.w3.org/2000/svg" viewBox="0 0 400 300">
  <rect width="400" height="300" fill="#0f172a"/>
  <rect x="40" y="40" width="100" height="80" rx="8" fill="#1e293b" stroke="#334155" stroke-width="1"/>
  <circle cx="90" cy="70" r="18" fill="#3b82f6"/>
  <path d="M82 76 Q90 84 98 76" stroke="white" stroke-width="2" fill="none" stroke-linecap="round"/>
  <circle cx="85" cy="68" r="2" fill="white"/>
  <circle cx="95" cy="68" r="2" fill="white"/>
  <text x="90" y="105" text-anchor="middle" font-family="Arial" font-size="9" fill="#94a3b8">Agent</text>
  <text x="90" y="115" text-anchor="middle" font-family="Arial" font-size="8" fill="#64748b">TR</text>
  <path d="M140 80 L170 80" stroke="#22c55e" stroke-width="2" marker-end="url(#arrow)"/>
  <polygon points="170,75 182,80 170,85" fill="#22c55e"/>
  <rect x="220" y="40" width="100" height="80" rx="8" fill="#1e293b" stroke="#334155" stroke-width="1"/>
  <circle cx="270" cy="70" r="18" fill="#22c55e"/>
  <path d="M262 76 Q270 84 278 76" stroke="white" stroke-width="2" fill="none" stroke-linecap="round"/>
  <circle cx="265" cy="68" r="2" fill="white"/>
  <circle cx="275" cy="68" r="2" fill="white"/>
  <text x="270" y="105" text-anchor="middle" font-family="Arial" font-size="9" fill="#94a3b8">Customer</text>
  <text x="270" y="115" text-anchor="middle" font-family="Arial" font-size="8" fill="#64748b">IN</text>
  <rect x="120" y="150" width="160" height="60" rx="10" fill="#1e40af" stroke="#3b82f6" stroke-width="1"/>
  <text x="200" y="173" text-anchor="middle" font-family="Arial" font-size="10" fill="#93c5fd" font-weight="bold">AI Accent Converter</text>
  <text x="200" y="190" text-anchor="middle" font-family="Arial" font-size="9" fill="#60a5fa">Real-time voice transform</text>
  <text x="200" y="205" text-anchor="middle" font-family="Arial" font-size="8" fill="#3b82f6">200-500ms latency</text>
  <rect x="110" y="235" width="180" height="24" rx="6" fill="#166534"/>
  <text x="200" y="252" text-anchor="middle" font-family="Arial" font-size="9" fill="#bbf7d0" font-weight="bold">Telus ATandT Deutsche</text>
  <text x="200" y="275" text-anchor="middle" font-family="Arial" font-size="8" fill="#475569">Voice API: $50-80 per hour</text>
  <text x="200" y="290" text-anchor="middle" font-family="Arial" font-size="8" fill="#475569">Per call: $0.05-0.08</text>
</svg>
